<svg xmlns="http://www.w3.org/2000/svg" width="75.5" height="93" viewBox="0 0 75.5 93">
  <path id="Subtraction_10" data-name="Subtraction 10" d="M109,184a76.745,76.745,0,0,1-15.5-1.566c26.2-5.414,44.5-23.891,44.5-44.933S119.7,97.981,93.5,92.566A76.746,76.746,0,0,1,109,91a74.842,74.842,0,0,1,23.355,3.654,63.026,63.026,0,0,1,19.072,9.965A47.707,47.707,0,0,1,164.285,119.4a37.1,37.1,0,0,1,0,36.2,47.708,47.708,0,0,1-12.859,14.78,63.027,63.027,0,0,1-19.072,9.965A74.842,74.842,0,0,1,109,184Z" transform="translate(-93.5 -91)" fill="#82e912"/>
</svg>
